<svg class="svg-icon" style="width: 1em;height: 1em;vertical-align: middle;fill: currentColor;overflow: hidden;" viewBox="0 0 1024 1024" version="1.1" xmlns="http://www.w3.org/2000/svg"><path d="M903.940953 1023.995897v-56.0825c0-22.863773-16.865776-84.993502-66.909254-104.095193-74.45393-37.587993-153.375588-36.906962-206.524731-105.510589-21.645302-7.360059-34.150017 9.427768-57.013791 9.427767l-124.579459 0.004103c-22.85967 0-31.795127-18.847331-53.436326-11.483169-68.804654 88.090962-125.215362 64.50103-201.170843 103.340315C125.776769 895.441021 118.470044 945.053726 118.470044 967.917499v56.078398" fill="#BFEAF5" /><path d="M912.146147 1023.995897h-16.410388v-56.0825c0-18.687329-15.171404-78.696015-61.625109-96.431542l-0.771288-0.340516c-24.631992-12.434971-50.129632-20.705807-74.78624-28.701768-49.555269-16.069872-96.402824-31.265892-132.887219-77.018053-8.426734-2.141556-15.040121 0.44308-23.926345 3.91798-7.91391 3.093358-16.882187 6.601079-28.242278 6.601078l-124.57946 0.004103c-12.041122 0-20.951963-4.447215-28.1192-8.020577-7.63083-3.80721-12.89036-6.412359-20.484266-4.545677-46.047548 57.973798-87.225314 68.217983-130.786689 79.057043-22.617617 5.62466-46.006522 11.446246-71.48365 24.471991C139.069184 897.746681 126.675238 938.862908 126.675238 967.917499v56.078398h-16.410388v-56.078398c0-27.495605 10.424699-79.073454 80.238592-115.590669 27.220731-13.924214 51.540926-19.971442 75.057012-25.821746 43.04855-10.707778 80.222181-19.959134 123.447143-75.299065l1.505653-1.92822 2.317967-0.787699c15.310892-5.214401 25.92431 0.086155 35.286436 4.750807 6.490308 3.236949 12.619588 6.293384 20.791962 6.293384l124.57946-0.004102c8.266733 0 15.064736-2.658483 22.264794-5.476967 10.408289-4.065674 22.207357-8.668787 37.391068-3.511823l2.334378 0.791801 1.509756 1.952836c33.612577 43.384963 78.786272 58.035337 126.614348 73.547256 25.124304 8.147758 51.106051 16.574492 76.747281 29.477159 53.698892 20.783756 71.787242 85.292991 71.787242 111.607048v56.078398z" fill="#6E6E96" /><path d="M260.998366 473.813027l-16.180643-9.349818c-8.898533-5.144657-17.899631-27.975609-20.00016-50.749125L219.988806 361.397768c-2.10053-22.769413 6.264666-39.060826 18.59297-36.197214l22.41659 5.197991" fill="#FFEAD6" /><path d="M256.891666 480.918725l-16.180642-9.349818c-12.898565-7.458521-22.026843-34.982844-24.065834-57.099945l-4.828757-52.316317c-1.649244-17.879118 2.482071-33.0177 11.056499-40.496734 4.97645-4.34465 11.220603-5.920047 17.563218-4.447215l22.412487 5.19799-3.704645 15.983718-22.41659-5.197991c-1.037957-0.233848-1.903605-0.184617-3.068743 0.828725-3.548746 3.093358-6.785695 12.746769-5.501582 26.621752l4.828757 52.316316c2.092324 22.687361 10.834959 41.45264 15.934486 44.398305l16.180643 9.349818-8.209297 14.211396z" fill="#6E6E96" /><path d="M260.998366 473.813027l-16.180643-9.349818c-8.898533-5.144657-17.899631-27.975609-20.00016-50.749125L219.988806 361.397768c-2.10053-22.769413 6.264666-39.060826 18.59297-36.197214l22.41659 5.197991" fill="#FFEAD6" /><path d="M256.891666 480.918725l-16.180642-9.349818c-12.898565-7.458521-22.026843-34.982844-24.065834-57.099945l-4.828757-52.316317c-1.649244-17.879118 2.482071-33.0177 11.056499-40.496734 4.97645-4.34465 11.220603-5.920047 17.563218-4.447215l22.412487 5.19799-3.704645 15.983718-22.41659-5.197991c-1.037957-0.233848-1.903605-0.184617-3.068743 0.828725-3.548746 3.093358-6.785695 12.746769-5.501582 26.621752l4.828757 52.316316c2.092324 22.687361 10.834959 41.45264 15.934486 44.398305l16.180643 9.349818-8.209297 14.211396z" fill="#6E6E96" /><path d="M615.056587 760.010192c0 45.727546-37.419787 83.147333-83.155538 83.147333H490.485333c-45.727546 0-83.147333-37.411582-83.147333-83.147333v-151.738651c0-45.727546 37.415684-83.151436 83.147333-83.151436h41.415716c45.727546 0 83.159641 37.407479 83.159641 83.151436l-0.004103 151.738651z" fill="#FFEAD6" /><path d="M531.901049 851.362719H490.485333c-50.371686 0-91.352527-40.976739-91.352527-91.352527v-151.738651c0-50.371686 40.980841-91.356629 91.352527-91.35663h41.415716c50.375788 0 91.364835 40.980841 91.364835 91.35663l-0.004103 151.738651c0 50.375788-40.980841 91.352527-91.360732 91.352527z m-41.415716-318.03742c-41.321357 0-74.942139 33.61668-74.942139 74.946242v151.738651c0 41.321357 33.620782 74.942139 74.942139 74.942139h41.415716c41.325459 0 74.950344-33.61668 74.950344-74.942139l0.004103-151.738651c0-41.325459-33.620782-74.946242-74.954447-74.946242H490.485333z" fill="#6E6E96" /><path d="M615.056587 779.046242c0 45.727546-37.419787 79.044736-83.155538 79.044736H490.485333c-45.727546 0-83.147333-33.304882-83.147333-79.044736v-170.778804c0-45.727546 37.415684-83.151436 83.147333-83.151435h41.415716c45.727546 0 83.159641 37.407479 83.159641 83.151435l-0.004103 170.778804z" fill="#FFEAD6" /><path d="M531.901049 866.29207H490.485333c-51.225026 0-91.352527-38.326461-91.352527-87.24993v-170.778805c0-50.371686 40.980841-91.356629 91.352527-91.356629h41.415716c50.375788 0 91.364835 40.980841 91.364835 91.356629l-0.004103 170.778805c0 48.927572-40.127501 87.24993-91.360732 87.24993z m-41.415716-332.970874c-41.321357 0-74.942139 33.61668-74.942139 74.946242v170.778804c0 40.385965 32.217694 70.839542 74.942139 70.839542h41.415716c42.728548 0 74.950344-30.453577 74.950344-70.839542l0.004103-170.778804c0-41.325459-33.620782-74.946242-74.954447-74.946242H490.485333z" fill="#6E6E96" /><path d="M615.056587 608.267438c0-0.800006-0.098462-1.587705-0.114872-2.379506H466.981555L407.338 642.056427v117.949663c0 16.841161 5.111836 32.55821 13.817546 45.694725 11.778556-13.214465 38.822875-30.75717 99.369002-30.75717 48.349105 0 71.151339 16.197053 81.670398 29.185875 8.098526-12.816513 12.861642-27.93048 12.861641-44.12343v-151.738652z" fill="#D59758" opacity=".15" /><path d="M762.18392 473.813027s7.265699-4.209264 16.17654-9.349818c8.902635-5.144657 17.891425-27.975609 20.00016-50.749125L803.193479 361.397768c2.104632-22.769413-6.25646-39.060826-18.597072-36.197214l-22.412487 5.197991" fill="#FFEAD6" /><path d="M766.298825 480.914623l-8.22981-14.199088 16.192951-9.358024c5.08722-2.941562 13.825752-21.702738 15.930384-44.398305l4.832859-52.316316c1.28001-13.874983-1.956939-23.524291-5.501583-26.617649-1.16924-1.017444-2.038991-1.066675-3.072845-0.832828l-22.412487 5.197991-3.708748-15.983718 22.41659-5.19799c6.346718-1.472832 12.586768 0.106668 17.56732 4.451317 8.570325 7.479034 12.705743 22.617617 11.048294 40.496735l-4.832859 52.316317c-2.096427 22.675053-11.035986 49.571679-24.061732 57.095842l-16.168334 9.345716z" fill="#6E6E96" /><path d="M762.18392 473.813027s7.265699-4.209264 16.17654-9.349818c8.902635-5.144657 17.891425-27.975609 20.00016-50.749125L803.193479 361.397768c2.104632-22.769413-6.25646-39.060826-18.597072-36.197214l-22.412487 5.197991" fill="#FFEAD6" /><path d="M766.298825 480.914623l-8.22981-14.199088 16.192951-9.358024c5.08722-2.941562 13.825752-21.702738 15.930384-44.398305l4.832859-52.316316c1.28001-13.874983-1.956939-23.524291-5.501583-26.617649-1.16924-1.017444-2.038991-1.066675-3.072845-0.832828l-22.412487 5.197991-3.708748-15.983718 22.41659-5.19799c6.346718-1.472832 12.586768 0.106668 17.56732 4.451317 8.570325 7.479034 12.705743 22.617617 11.048294 40.496735l-4.832859 52.316317c-2.096427 22.675053-11.035986 49.571679-24.061732 57.095842l-16.168334 9.345716z" fill="#6E6E96" /><path d="M761.396221 552.492632c0 25.965336-17.337575 59.491759-38.523385 74.511366l-133.830816 94.876658c-21.181708 15.019608-56.213784 18.995024-77.854983 18.995024-21.628891 0-56.665069-3.975416-77.846778-18.995024l-133.834918-94.876658c-21.185811-15.019608-38.51518-48.54603-38.515181-74.511366V173.260875c0-25.965336 21.243247-47.204481 47.208584-47.20448h405.980689c25.961234 0 47.208583 21.239145 47.208583 47.20448l0.008205 379.231757z" fill="#FFEAD6" /><path d="M511.187037 749.080874c-12.59087 0-55.758395-1.476935-82.593482-20.50478L294.758636 633.699437c-23.536599-16.685262-41.97367-52.357343-41.973669-81.206805V173.260875c0-30.55204 24.857635-55.409675 55.413777-55.409674h405.980689c30.55204 0 55.413777 24.857635 55.413777 55.409674l0.008205 379.23586c0 28.845359-18.441173 64.51744-41.981874 81.206804l-133.830816 94.876658c-26.835087 19.023742-70.006715 20.500677-82.601688 20.500677zM308.198744 134.261589c-21.505813 0-39.003389 17.493474-39.00339 38.999286v379.23586c0 23.290443 16.053462 54.347102 35.052589 67.815928l133.834919 94.876657c18.178607 12.894462 49.682449 17.485268 73.100072 17.485269 23.421726 0 54.929671-4.590806 73.108279-17.485269l133.834918-94.876657c19.003229-13.472928 35.060794-44.529588 35.060794-67.815928l-0.008205-379.23586c0-21.505813-17.497576-38.999287-39.00339-38.999286H308.198744z" fill="#6E6E96" /><path d="M511.20755 622.585501c-41.854694 0-67.975929-19.76221-69.592352-21.017604a8.205194 8.205194 0 0 1 10.051362-12.972411c2.108735 1.612321 52.484523 39.110057 126.483065-0.730263a8.205194 8.205194 0 0 1 7.782626 14.445244c-28.193046 15.183711-53.485557 20.275034-74.724701 20.275034z" fill="#6E6E96" /><path d="M722.872836 577.78104l-133.830816 94.876658c-21.181708 15.019608-56.213784 18.995024-77.854983 18.995024-21.624789 0-56.665069-3.975416-77.85088-18.995024l-133.830816-94.876658c-38.51518-25.280203-38.51518-110.53627-38.515181-136.501607v111.221404c0 25.965336 17.32937 59.491759 38.515181 74.511367l133.830816 94.876657c21.185811 15.019608 56.217886 18.995024 77.85088 18.995024s56.669172-3.975416 77.854983-18.995024l133.830816-94.876657c21.185811-15.019608 38.519283-48.54603 38.519283-74.511367v-92.759717c0 25.953028 0 92.751512-38.519283 118.03992zM260.998366 348.958694s85.165811-26.66688 103.627497-139.488298c0 0 170.257775 67.69285 328.207758 28.718179 0 0 69.350299-6.387743 69.350299 92.193559 0 0 41.809566-40.911097 20.906834-104.50135s-453.336966-102.564924-453.336966-102.564924-68.755423 168.206476-68.755422 225.642834z" fill="#D59758" opacity=".15" /><path d="M238.581776 325.188247h22.41659c64.923597-25.235074 76.419074-159.709998 76.419074-159.709998C453.045033 225.720783 633.969559 218.135081 703.254217 218.135081c69.292863 0 58.921498 112.230643 58.921498 112.230643 77.604724-36.189008 49.830143-278.500693-166.348-314.533802-216.17404-36.016699-261.704661 67.06105-261.704661 67.06105-79.036531-38.855696-102.031587 47.951153-102.031587 47.951153s-36.016699 85.215042 6.490309 194.344122z" fill="#666666" /><path d="M762.179817 338.575021a8.209297 8.209297 0 0 1-8.172373-8.951867c0.057436-0.623595 5.378505-62.482552-20.00016-90.277646-7.983654-8.746737-18.043222-12.997027-30.753067-12.997028-6.194921 0-13.280106 0.061539-21.132477 0.127181-9.817515 0.086155-20.824782 0.176412-32.783852 0.176412-87.697113 0-213.134015-5.173375-305.089624-48.62398-4.578498 34.437199-22.515052 132.357984-80.271413 154.811497-0.9477 0.369234-1.956939 0.557953-2.974383 0.557953h-22.41659a8.213399 8.213399 0 0 1-7.64724-5.226708c-41.97367-107.758812-9.895464-191.94-6.613387-200.001603 0.865648-3.015409 5.177477-16.939623 14.769349-30.937684 21.542737-31.429995 54.121459-40.623915 91.590478-24.915071C343.325179 52.57478 388.425028 0 510.292671 0c26.794061 0 56.029167 2.605149 86.893004 7.749806 137.70777 22.95403 199.566727 126.347679 210.69297 207.911409 3.753876 27.520221 2.051298 53.448633-4.923116 74.987268-7.429803 22.93762-20.328368 39.245443-37.304915 47.163455-1.107701 0.508722-2.293352 0.763083-3.470797 0.763083zM244.247462 316.983053h15.154993c58.273287-24.541735 69.731841-150.918132 69.838509-152.202245a8.196989 8.196989 0 0 1 11.967275-6.576463c89.522769 46.642425 218.725855 52.03734 308.125546 52.03734 11.905736 0 22.867876-0.09436 32.644364-0.176412 7.905704-0.069744 15.040121-0.127181 21.276068-0.127181 17.349883 0 31.778716 6.182614 42.896754 18.37143 21.271965 23.327366 24.718147 63.290764 24.804301 85.945304 18.203223-18.145786 26.383801-54.412744 20.656576-96.374106-10.371365-76.037532-68.226188-172.456766-197.133887-193.942067-29.969471-4.992861-58.2938-7.524163-84.189393-7.524162-136.267759 0-168.350067 69.108246-168.657761 69.805687a8.209297 8.209297 0 0 1-11.126243 4.053366c-12.373432-6.084151-23.922243-9.165202-34.322327-9.165202-41.940849 0-56.020962 51.335796-56.16045 51.852723-0.098462 0.373336-0.22154 0.738467-0.373336 1.095394-0.336413 0.779493-32.993085 80.936033 4.599011 182.926594z" fill="#6E6E96" /><path d="M223.713964 401.742706s7.507752 39.528522 37.284402 39.528522v32.550005c0-0.008205-37.284401-11.770351-37.284402-72.078527z" fill="#D59758" opacity=".15" /><path d="M799.81294 401.742706s-7.507752 39.528522-37.292607 39.528522v32.550005c0-0.008205 37.292607-11.770351 37.292607-72.078527z" fill="#D59758" opacity=".15" /><path d="M638.474211 183.829165c-108.554716 6.194921-130.905664-45.8137-160.518209-46.642425-27.142782-0.767186 68.377984 56.070193-7.840063 45.805496C390.369659 168.879302 331.805087 141.777546 331.805087 141.777546c-2.32207 106.667521-106.121876 141.876009-106.121876 141.876009a307.817851 307.817851 0 0 0 12.898565 41.534692h22.41659c64.923597-25.235074 76.419074-159.709998 76.419074-159.709998C453.045033 225.720783 633.969559 218.135081 703.254217 218.135081c69.292863 0 58.921498 112.234745 58.921498 112.234746 42.539828-59.737915 26.125338-177.055778-123.701504-146.540662z" fill="#3F3F3F" opacity=".49" /><path d="M360.367367 117.338376a8.205194 8.205194 0 0 1-7.150827-4.168238c-8.927251-15.790896-22.580694-22.84326-22.716079-22.908902a8.205194 8.205194 0 0 1 7.253391-14.720118c0.738467 0.365131 18.211428 9.148791 29.747931 29.551006a8.209297 8.209297 0 0 1-7.134416 12.246252z" fill="#6E6E96" /><path d="M315.218287 470.86326c0 22.564283 18.461686 41.02597 41.02597 41.02597h90.257134c22.564283 0 41.02597-18.461686 41.025969-41.02597v-90.257133h-172.309073v90.257133z m229.745431-90.257133v90.257133c0 22.564283 18.461686 41.02597 41.02597 41.02597h90.257133c22.564283 0 41.02597-18.461686 41.02597-41.02597v-90.257133h-172.309073z" opacity=".1" /><path d="M676.246821 520.094424h-90.257133c-27.146884 0-49.231164-22.08428-49.231164-49.231164v-98.462327h188.719461v98.462327c0 27.142782-22.08428 49.231164-49.231164 49.231164z m-123.077909-131.283103v82.051939c0 18.096555 14.724221 32.820776 32.820776 32.820776h90.257133c18.096555 0 32.820776-14.724221 32.820776-32.820776v-82.051939h-155.898685z m-106.667521 131.283103h-90.257134c-27.146884 0-49.231164-22.08428-49.231164-49.231164v-98.462327h188.719461v98.462327c0 27.142782-22.08428 49.231164-49.231163 49.231164z m-123.07791-131.283103v82.051939c0 18.096555 14.724221 32.820776 32.820776 32.820776h90.257134c18.096555 0 32.820776-14.724221 32.820775-32.820776v-82.051939h-155.898685z" fill="#6E6E96" opacity=".1" /><path d="M452.684004 924.17561l-93.272542-131.845159 45.538826-45.542929 107.488041 107.488041z" fill="#FFFFFF" /><path d="M452.684004 932.380804l-0.377439-0.008205a8.205194 8.205194 0 0 1-6.322102-3.458489l-93.272542-131.845159a8.209297 8.209297 0 0 1 0.894366-10.539572l45.542929-45.547031c3.076948-3.076948 8.525197-3.076948 11.602144 0l107.488041 107.48804a8.205194 8.205194 0 0 1 0.430773 11.134449l-59.754325 69.900047c-1.558987 1.829758-3.840031 2.87592-6.231845 2.87592z m-82.581174-139.139576l83.188359 117.592737 47.975769-56.123527-96.320772-96.324874-34.843356 34.855664z" fill="#6E6E96" /><path d="M576.397816 930.337711l88.127886-138.00726-45.542929-45.542929-107.488041 107.488041z" fill="#FFFFFF" /><path d="M576.397816 938.542905c-2.391814 0-4.676961-1.046162-6.24005-2.880023l-64.903084-76.062148a8.205194 8.205194 0 0 1 0.438978-11.126243l107.48804-107.488041a8.205194 8.205194 0 0 1 11.602145 0l45.542929 45.547032c2.724124 2.724124 3.183615 6.970312 1.111804 10.215466l-88.123784 138.00726a8.205194 8.205194 0 0 1-6.35082 3.770287c-0.188719 0.008205-0.377439 0.01641-0.566158 0.01641z m-53.739918-83.828364l52.792218 61.867162 78.609861-123.11073-35.077204-35.085409-96.324875 96.328977z" fill="#6E6E96" /><path d="M315.218287 448.98411c0 22.564283 18.461686 41.02597 41.02597 41.02597h90.257134c22.564283 0 41.02597-18.461686 41.025969-41.02597v-90.257133h-172.309073v90.257133z m229.745431-90.257133v90.257133c0 22.564283 18.461686 41.02597 41.02597 41.02597h90.257133c22.564283 0 41.02597-18.461686 41.02597-41.02597v-90.257133h-172.309073z" fill="#BDF2FF" /><path d="M676.246821 498.215274h-90.257133c-27.146884 0-49.231164-22.08428-49.231164-49.231164v-98.462327h188.719461v98.462327c0 27.142782-22.08428 49.231164-49.231164 49.231164z m-123.077909-131.283103v82.051939c0 18.096555 14.724221 32.820776 32.820776 32.820776h90.257133c18.096555 0 32.820776-14.724221 32.820776-32.820776v-82.051939h-155.898685z m-106.667521 131.283103h-90.257134c-27.146884 0-49.231164-22.08428-49.231164-49.231164v-98.462327h188.719461v98.462327c0 27.142782-22.08428 49.231164-49.231163 49.231164z m-123.07791-131.283103v82.051939c0 18.096555 14.724221 32.820776 32.820776 32.820776h90.257134c18.096555 0 32.820776-14.724221 32.820775-32.820776v-82.051939h-155.898685z" fill="#6E6E96" /><path d="M761.392119 364.195739H260.998366a8.205194 8.205194 0 0 1 0-16.410388h500.393753a8.205194 8.205194 0 0 1 0 16.410388z" fill="#6E6E96" /><path d="M346.672898 431.207558a8.205194 8.205194 0 0 1-5.801072-14.006266l36.923373-36.923373a8.205194 8.205194 0 1 1 11.602144 11.602144l-36.923373 36.923373c-1.600013 1.600013-3.700542 2.404122-5.801072 2.404122zM354.878092 465.394498a8.205194 8.205194 0 0 1-5.801072-14.006266l67.69285-67.69285a8.205194 8.205194 0 1 1 11.602144 11.602144l-67.69285 67.692851c-1.600013 1.600013-3.700542 2.404122-5.801072 2.404121z" fill="#6E6E96" opacity=".13" /><path d="M577.784494 431.207558a8.205194 8.205194 0 0 1-5.801072-14.006266l36.923372-36.923373a8.205194 8.205194 0 1 1 11.602145 11.602144l-36.923373 36.923373c-1.604115 1.600013-3.700542 2.404122-5.801072 2.404122zM585.989688 465.394498a8.205194 8.205194 0 0 1-5.801072-14.006266l67.69285-67.69285a8.205194 8.205194 0 1 1 11.602144 11.602144l-67.69285 67.692851c-1.604115 1.600013-3.700542 2.404122-5.801072 2.404121z" fill="#6E6E96" opacity=".13" /><path d="M395.477392 755.493233a290.299762 290.299762 0 0 1-9.489307 11.483169l62.868196-0.008205c-22.818644-0.032821-31.758203-18.83092-53.378889-11.474964z m441.554307 107.557785c-74.45393-37.587993-153.375588-36.906962-206.524731-105.510589a35.409514 35.409514 0 0 0-7.146724-1.620526c43.832146 57.863028 48.271156 71.947243 117.941457 107.118807 50.039375 19.101692 66.909254 81.23142 66.909255 104.091091v56.086603h95.729997v-56.086603c0-22.847363-16.865776-84.972989-66.909254-104.078783z" fill="#666666" opacity=".1" /><path d="M661.177982 788.162213l-91.992531 101.563891-46.568579-46.572681-9.854438 13.005232-11.446245-13.005232-47.811665 43.274193-101.280812-86.909415 100.460292 151.151981 57.887644-66.929767 65.826168 75.335988z" fill="#666666" opacity=".1" /></svg>