<svg class="svg-icon" style="width: 1em;height: 1em;vertical-align: middle;fill: currentColor;overflow: hidden;" viewBox="0 0 1024 1024" version="1.1" xmlns="http://www.w3.org/2000/svg"><path d="M0 0m320 0l384 0q320 0 320 320l0 384q0 320-320 320l-384 0q-320 0-320-320l0-384q0-320 320-320Z" fill="#4D4D4D" /><path d="M529.92 446.72l16-11.28 17.92-12.56a1.52 1.52 0 0 0 0.72-2.08 75.04 75.04 0 1 1 93.44 51.76 72.64 72.64 0 0 1-76.24-21.04l-0.8-0.88-1.2 0.8-32.8 22.96a1.6 1.6 0 0 0-0.72 2.32 94.24 94.24 0 0 1 0 62.48 1.68 1.68 0 0 0 0.72 2.4l32.72 23.12 1.28 0.88c2.16-2.16 4.16-4.32 6.4-6.24a73.12 73.12 0 0 1 43.92-19.04 75.04 75.04 0 1 1-68 88.48 73.76 73.76 0 0 1 1.36-33.68c0-0.8 0.48-1.44-0.48-2.08l-33.84-24-0.8-0.48a97.76 97.76 0 0 1-59.04 34.32V646.64c0 1.28 0.48 1.68 1.68 2a73.44 73.44 0 0 1 53.36 49.12 74.96 74.96 0 1 1-99.44-45.6 107.44 107.44 0 0 1 11.2-3.6c0.72 0 1.2-0.48 1.2-1.36v-43.76a1.6 1.6 0 0 0 0-0.56l-8-1.68A96.8 96.8 0 0 1 432 413.36q2.4-0.64 4.8-0.96c0.8 0 1.2-0.48 1.2-1.36v-40.8c0-1.04-0.48-1.28-1.28-1.44a74.56 74.56 0 0 1-47.28-35.92 70.8 70.8 0 0 1-9.28-44.08 72.88 72.88 0 0 1 43.52-60.88 74.88 74.88 0 1 1 56 138.8c-2.8 1.04-5.68 1.68-8.48 2.48-0.8 0-1.04 0.48-1.04 1.28v40c0 0.8 0 1.12 1.04 1.28a96 96 0 0 1 58.08 33.52l0.64 0.8z m-24.8 60.8a50.72 50.72 0 1 0-50.8 50.64 50.64 50.64 0 0 0 50.8-50.64z m95.44 107.28a36.4 36.4 0 1 0 36.48-36.4 36.48 36.48 0 0 0-36.48 36.4z m36.4-250.48a36.4 36.4 0 1 0 36.4 36.48 36.56 36.56 0 0 0-36.4-36.48zM490.8 721.6a36.4 36.4 0 1 0-36.48 36.32 36.48 36.48 0 0 0 36.48-36.32z m0-425.6a36.4 36.4 0 1 0-36.4 36.48A36.48 36.48 0 0 0 490.8 296z" fill="#FFFFFF" /></svg>