<svg class="svg-icon" style="width: 1em;height: 1em;vertical-align: middle;fill: currentColor;overflow: hidden;" viewBox="0 0 1024 1024" version="1.1" xmlns="http://www.w3.org/2000/svg"><path d="M782.11072 352.964608v316.358656l-268.82048 159.043584-2.428928 2.21184v118.239232l2.428928 2.29376 378.59328-218.68544V291.610624l-3.575808-0.88064-106.733568 59.670528 0.540672 2.576384" fill="#01579B" /><path d="M243.617792 671.920128l269.68064 156.450816v122.740736l-381.186048-219.549696v-439.0912l3.91168-0.589824 106.426368 61.874176 1.16736 3.54304v314.630144" fill="#0288D1" /><path d="M243.617792 357.265408L132.112384 292.438016l380.321792-219.549696 379.45344 218.68544-109.7728 61.370368-269.68064-153.858048-268.82048 158.179328" fill="#4FC3F7" /><path d="M508.665856 635.711488l-2.920448-2.977792v-118.792192l2.920448-1.511424 0.708608-2.92864 101.842944-59.408384 3.11296 0.69632v122.404864l-105.668608 62.517248" fill="#2F406A" /><path d="M401.240064 577.015808v-127.094784l2.94912-0.14336 103.596032 60.284928 0.884736 2.37568v123.281408l-107.429888-58.703872" fill="#2379BD" /><path d="M506.904576 387.411968l-105.668608 62.521344 107.429888 62.517248 105.668608-61.640704-107.429888-63.401984" fill="#03AFEF" /><path d="M377.171968 713.207808l-2.920448-2.977792v-118.796288l2.920448-1.507328 0.708608-2.92864 101.838848-59.408384 3.117056 0.69632v122.396672l-105.668608 62.521344" fill="#01579B" /><path d="M269.74208 654.512128v-127.09888l2.94912-0.147456 103.596032 60.29312 0.88064 2.37568v123.281408l-107.429888-58.703872" fill="#0288D1" /><path d="M375.410688 464.908288l-105.672704 62.517248 107.433984 62.521344 105.668608-61.640704-107.429888-63.401984" fill="#4FC3F7" /><path d="M649.56416 716.156928l-2.916352-2.977792v-118.796288l2.920448-1.507328 0.708608-2.92864 101.842944-59.408384 3.11296 0.69632v122.396672l-105.668608 62.521344" fill="#01579B" /><path d="M542.130176 657.461248v-127.09888l2.94912-0.14336 103.596032 60.29312 0.884736 2.37568v123.277312l-107.429888-58.703872" fill="#0288D1" /><path d="M647.80288 467.816448l-105.668608 62.517248 107.429888 62.521344 105.668608-61.640704-107.429888-63.401984" fill="#4FC3F7" /><path d="M518.045696 793.653248l-2.920448-2.977792v-118.796288l2.920448-1.507328 0.708608-2.932736 101.842944-59.404288 3.11296 0.69632V731.136l-105.668608 62.521344" fill="#01579B" /><path d="M410.648576 734.957568v-127.09888l2.94912-0.14336 103.600128 60.284928 0.876544 2.37568v123.285504l-107.429888-58.703872" fill="#0288D1" /><path d="M516.284416 545.312768l-105.672704 62.521344 107.433984 62.521344 105.668608-61.640704-107.429888-63.401984" fill="#4FC3F7" /><path d="M508.665856 467.243008l-2.920448-2.981888V345.468928l2.920448-1.507328 0.708608-2.92864 101.842944-59.404288 3.11296 0.69632v122.396672l-105.668608 62.521344" fill="#01579B" /><path d="M401.240064 408.547328v-127.09888l2.94912-0.14336 103.596032 60.284928 0.884736 2.37568v123.285504L401.240064 408.547328" fill="#0288D1" /><path d="M506.904576 218.902528L401.235968 281.423872l107.429888 62.521344 105.668608-61.640704-107.429888-63.401984" fill="#4FC3F7" /><path d="M377.171968 544.739328l-2.920448-2.977792v-118.792192l2.920448-1.511424 0.708608-2.92864 101.838848-59.408384 3.117056 0.69632v122.404864l-105.668608 62.517248" fill="#01579B" /><path d="M269.74208 486.043648V358.948864l2.94912-0.147456 103.596032 60.29312 0.88064 2.37568v123.277312l-107.429888-58.703872" fill="#0288D1" /><path d="M375.410688 296.398848L269.733888 358.920192l107.433984 62.517248 105.668608-61.640704-107.429888-63.401984" fill="#4FC3F7" /><path d="M649.56416 547.688448l-2.916352-2.977792v-118.792192l2.920448-1.511424 0.708608-2.92864 101.842944-59.408384 3.11296 0.69632v122.404864l-105.668608 62.517248" fill="#01579B" /><path d="M542.130176 488.951808V361.857024l2.94912-0.14336 103.596032 60.284928 0.884736 2.37568v123.281408l-107.429888-58.703872" fill="#0288D1" /><path d="M647.80288 299.347968l-105.668608 62.521344 107.429888 62.517248 105.668608-61.640704-107.429888-63.401984" fill="#4FC3F7" /><path d="M518.045696 625.143808l-2.920448-2.977792v-118.796288l2.920448-1.507328 0.708608-2.92864 101.842944-59.408384 3.11296 0.69632v122.396672l-105.668608 62.521344" fill="#01579B" /><path d="M410.648576 566.448128v-127.09888l2.94912-0.147456 103.600128 60.29312 0.876544 2.37568v123.281408l-107.429888-58.703872" fill="#0288D1" /><path d="M516.284416 376.844288l-105.672704 62.521344 107.433984 62.521344 105.668608-61.640704-107.429888-63.401984" fill="#4FC3F7" /></svg>